<mxfile host="app.diagrams.net" modified="2021-02-02T02:28:11.778Z" agent="5.0 (Windows NT 10.0; Win64; x64) AppleWebKit/537.36 (KHTML, like Gecko) Chrome/88.0.4324.104 Safari/537.36" etag="J57bo48F_tcXNtr779a8" version="13.9.9" type="github">
  <diagram id="C5RBs43oDa-KdzZeNtuy" name="Page-1">
    <mxGraphModel dx="3076" dy="762" grid="1" gridSize="10" guides="1" tooltips="1" connect="1" arrows="1" fold="1" page="1" pageScale="1" pageWidth="1654" pageHeight="2336" math="0" shadow="0">
      <root>
        <mxCell id="WIyWlLk6GJQsqaUBKTNV-0" />
        <mxCell id="WIyWlLk6GJQsqaUBKTNV-1" parent="WIyWlLk6GJQsqaUBKTNV-0" />
        <mxCell id="WIyWlLk6GJQsqaUBKTNV-2" value="" style="rounded=0;html=1;jettySize=auto;orthogonalLoop=1;fontSize=11;endArrow=block;endFill=0;endSize=8;strokeWidth=1;shadow=0;labelBackgroundColor=none;edgeStyle=orthogonalEdgeStyle;" parent="WIyWlLk6GJQsqaUBKTNV-1" source="WIyWlLk6GJQsqaUBKTNV-3" target="WIyWlLk6GJQsqaUBKTNV-6" edge="1">
          <mxGeometry relative="1" as="geometry" />
        </mxCell>
        <mxCell id="WIyWlLk6GJQsqaUBKTNV-3" value="&lt;font style=&quot;font-size: 14px&quot;&gt;登录&lt;/font&gt;" style="rounded=1;whiteSpace=wrap;html=1;fontSize=12;glass=0;strokeWidth=1;shadow=0;" parent="WIyWlLk6GJQsqaUBKTNV-1" vertex="1">
          <mxGeometry x="225" y="120" width="120" height="40" as="geometry" />
        </mxCell>
        <mxCell id="WIyWlLk6GJQsqaUBKTNV-4" value="Yes" style="rounded=0;html=1;jettySize=auto;orthogonalLoop=1;fontSize=11;endArrow=block;endFill=0;endSize=8;strokeWidth=1;shadow=0;labelBackgroundColor=none;edgeStyle=orthogonalEdgeStyle;" parent="WIyWlLk6GJQsqaUBKTNV-1" source="WIyWlLk6GJQsqaUBKTNV-6" target="WIyWlLk6GJQsqaUBKTNV-10" edge="1">
          <mxGeometry y="20" relative="1" as="geometry">
            <mxPoint as="offset" />
          </mxGeometry>
        </mxCell>
        <mxCell id="WIyWlLk6GJQsqaUBKTNV-6" value="是否成功" style="rhombus;whiteSpace=wrap;html=1;shadow=0;fontFamily=Helvetica;fontSize=12;align=center;strokeWidth=1;spacing=6;spacingTop=-4;" parent="WIyWlLk6GJQsqaUBKTNV-1" vertex="1">
          <mxGeometry x="235" y="210" width="100" height="80" as="geometry" />
        </mxCell>
        <mxCell id="fpGE6FCmWR1sTY0XqfGk-2" style="edgeStyle=orthogonalEdgeStyle;rounded=0;orthogonalLoop=1;jettySize=auto;html=1;entryX=1;entryY=0.5;entryDx=0;entryDy=0;exitX=1;exitY=0.5;exitDx=0;exitDy=0;" edge="1" parent="WIyWlLk6GJQsqaUBKTNV-1" source="WIyWlLk6GJQsqaUBKTNV-6" target="WIyWlLk6GJQsqaUBKTNV-3">
          <mxGeometry relative="1" as="geometry">
            <mxPoint x="285" y="180" as="targetPoint" />
            <mxPoint x="380" y="250" as="sourcePoint" />
            <Array as="points">
              <mxPoint x="445" y="250" />
              <mxPoint x="445" y="140" />
            </Array>
          </mxGeometry>
        </mxCell>
        <mxCell id="WIyWlLk6GJQsqaUBKTNV-8" value="No" style="rounded=0;html=1;jettySize=auto;orthogonalLoop=1;fontSize=11;endArrow=block;endFill=0;endSize=8;strokeWidth=1;shadow=0;labelBackgroundColor=none;edgeStyle=orthogonalEdgeStyle;" parent="WIyWlLk6GJQsqaUBKTNV-1" source="WIyWlLk6GJQsqaUBKTNV-10" target="WIyWlLk6GJQsqaUBKTNV-11" edge="1">
          <mxGeometry x="0.3333" y="20" relative="1" as="geometry">
            <mxPoint as="offset" />
          </mxGeometry>
        </mxCell>
        <mxCell id="WIyWlLk6GJQsqaUBKTNV-9" value="Yes" style="edgeStyle=orthogonalEdgeStyle;rounded=0;html=1;jettySize=auto;orthogonalLoop=1;fontSize=11;endArrow=block;endFill=0;endSize=8;strokeWidth=1;shadow=0;labelBackgroundColor=none;" parent="WIyWlLk6GJQsqaUBKTNV-1" source="WIyWlLk6GJQsqaUBKTNV-10" target="WIyWlLk6GJQsqaUBKTNV-12" edge="1">
          <mxGeometry y="10" relative="1" as="geometry">
            <mxPoint as="offset" />
            <Array as="points">
              <mxPoint x="610" y="370" />
              <mxPoint x="610" y="370" />
            </Array>
          </mxGeometry>
        </mxCell>
        <mxCell id="WIyWlLk6GJQsqaUBKTNV-10" value="是否管理员" style="rhombus;whiteSpace=wrap;html=1;shadow=0;fontFamily=Helvetica;fontSize=12;align=center;strokeWidth=1;spacing=6;spacingTop=-4;" parent="WIyWlLk6GJQsqaUBKTNV-1" vertex="1">
          <mxGeometry x="235" y="330" width="100" height="80" as="geometry" />
        </mxCell>
        <mxCell id="fpGE6FCmWR1sTY0XqfGk-8" value="" style="edgeStyle=orthogonalEdgeStyle;rounded=0;orthogonalLoop=1;jettySize=auto;html=1;" edge="1" parent="WIyWlLk6GJQsqaUBKTNV-1" source="WIyWlLk6GJQsqaUBKTNV-11" target="fpGE6FCmWR1sTY0XqfGk-7">
          <mxGeometry relative="1" as="geometry" />
        </mxCell>
        <mxCell id="WIyWlLk6GJQsqaUBKTNV-11" value="用户系统" style="rounded=1;whiteSpace=wrap;html=1;fontSize=12;glass=0;strokeWidth=1;shadow=0;" parent="WIyWlLk6GJQsqaUBKTNV-1" vertex="1">
          <mxGeometry x="200" y="470" width="170" height="40" as="geometry" />
        </mxCell>
        <mxCell id="WIyWlLk6GJQsqaUBKTNV-12" value="管理员系统" style="rounded=1;whiteSpace=wrap;html=1;fontSize=12;glass=0;strokeWidth=1;shadow=0;" parent="WIyWlLk6GJQsqaUBKTNV-1" vertex="1">
          <mxGeometry x="507" y="350" width="120" height="40" as="geometry" />
        </mxCell>
        <mxCell id="fpGE6FCmWR1sTY0XqfGk-1" value="" style="edgeStyle=orthogonalEdgeStyle;rounded=0;orthogonalLoop=1;jettySize=auto;html=1;" edge="1" parent="WIyWlLk6GJQsqaUBKTNV-1" source="fpGE6FCmWR1sTY0XqfGk-0" target="WIyWlLk6GJQsqaUBKTNV-3">
          <mxGeometry relative="1" as="geometry" />
        </mxCell>
        <mxCell id="fpGE6FCmWR1sTY0XqfGk-0" value="&lt;font style=&quot;font-size: 18px&quot;&gt;用户&lt;/font&gt;" style="rounded=1;whiteSpace=wrap;html=1;" vertex="1" parent="WIyWlLk6GJQsqaUBKTNV-1">
          <mxGeometry x="190" y="30" width="190" height="40" as="geometry" />
        </mxCell>
        <mxCell id="fpGE6FCmWR1sTY0XqfGk-56" value="" style="edgeStyle=orthogonalEdgeStyle;rounded=0;orthogonalLoop=1;jettySize=auto;html=1;entryX=0.5;entryY=0;entryDx=0;entryDy=0;" edge="1" parent="WIyWlLk6GJQsqaUBKTNV-1" source="fpGE6FCmWR1sTY0XqfGk-7" target="fpGE6FCmWR1sTY0XqfGk-15">
          <mxGeometry relative="1" as="geometry">
            <mxPoint x="560" y="748" as="targetPoint" />
            <Array as="points" />
          </mxGeometry>
        </mxCell>
        <mxCell id="fpGE6FCmWR1sTY0XqfGk-7" value="项目总览" style="rounded=1;whiteSpace=wrap;html=1;fontSize=12;glass=0;strokeWidth=1;shadow=0;" vertex="1" parent="WIyWlLk6GJQsqaUBKTNV-1">
          <mxGeometry x="218.52" y="560" width="132.97" height="40" as="geometry" />
        </mxCell>
        <mxCell id="fpGE6FCmWR1sTY0XqfGk-19" value="" style="edgeStyle=orthogonalEdgeStyle;rounded=0;orthogonalLoop=1;jettySize=auto;html=1;" edge="1" parent="WIyWlLk6GJQsqaUBKTNV-1" target="fpGE6FCmWR1sTY0XqfGk-18">
          <mxGeometry relative="1" as="geometry">
            <mxPoint x="465" y="740" as="sourcePoint" />
            <Array as="points">
              <mxPoint x="215" y="740" />
            </Array>
          </mxGeometry>
        </mxCell>
        <mxCell id="fpGE6FCmWR1sTY0XqfGk-33" value="" style="edgeStyle=orthogonalEdgeStyle;rounded=0;orthogonalLoop=1;jettySize=auto;html=1;" edge="1" parent="WIyWlLk6GJQsqaUBKTNV-1" target="fpGE6FCmWR1sTY0XqfGk-32">
          <mxGeometry relative="1" as="geometry">
            <mxPoint x="215" y="740" as="sourcePoint" />
            <Array as="points">
              <mxPoint x="215" y="740" />
              <mxPoint x="46" y="740" />
            </Array>
          </mxGeometry>
        </mxCell>
        <mxCell id="fpGE6FCmWR1sTY0XqfGk-36" value="" style="edgeStyle=orthogonalEdgeStyle;rounded=0;orthogonalLoop=1;jettySize=auto;html=1;" edge="1" parent="WIyWlLk6GJQsqaUBKTNV-1" target="fpGE6FCmWR1sTY0XqfGk-35">
          <mxGeometry relative="1" as="geometry">
            <mxPoint x="215" y="740" as="sourcePoint" />
            <Array as="points">
              <mxPoint x="215" y="740" />
              <mxPoint x="536" y="740" />
            </Array>
          </mxGeometry>
        </mxCell>
        <mxCell id="fpGE6FCmWR1sTY0XqfGk-61" value="" style="edgeStyle=orthogonalEdgeStyle;rounded=0;orthogonalLoop=1;jettySize=auto;html=1;" edge="1" parent="WIyWlLk6GJQsqaUBKTNV-1" source="fpGE6FCmWR1sTY0XqfGk-15" target="fpGE6FCmWR1sTY0XqfGk-30">
          <mxGeometry relative="1" as="geometry" />
        </mxCell>
        <mxCell id="fpGE6FCmWR1sTY0XqfGk-63" value="" style="edgeStyle=orthogonalEdgeStyle;rounded=0;orthogonalLoop=1;jettySize=auto;html=1;" edge="1" parent="WIyWlLk6GJQsqaUBKTNV-1" source="fpGE6FCmWR1sTY0XqfGk-15" target="fpGE6FCmWR1sTY0XqfGk-62">
          <mxGeometry relative="1" as="geometry">
            <Array as="points">
              <mxPoint x="285" y="740" />
              <mxPoint x="697" y="740" />
            </Array>
          </mxGeometry>
        </mxCell>
        <mxCell id="fpGE6FCmWR1sTY0XqfGk-65" value="" style="edgeStyle=orthogonalEdgeStyle;rounded=0;orthogonalLoop=1;jettySize=auto;html=1;" edge="1" parent="WIyWlLk6GJQsqaUBKTNV-1" source="fpGE6FCmWR1sTY0XqfGk-15" target="fpGE6FCmWR1sTY0XqfGk-64">
          <mxGeometry relative="1" as="geometry">
            <Array as="points">
              <mxPoint x="285" y="740" />
              <mxPoint x="-123" y="740" />
            </Array>
          </mxGeometry>
        </mxCell>
        <mxCell id="fpGE6FCmWR1sTY0XqfGk-67" value="" style="edgeStyle=orthogonalEdgeStyle;rounded=0;orthogonalLoop=1;jettySize=auto;html=1;" edge="1" parent="WIyWlLk6GJQsqaUBKTNV-1" source="fpGE6FCmWR1sTY0XqfGk-15" target="fpGE6FCmWR1sTY0XqfGk-66">
          <mxGeometry relative="1" as="geometry">
            <Array as="points">
              <mxPoint x="285" y="740" />
              <mxPoint x="-293" y="740" />
            </Array>
          </mxGeometry>
        </mxCell>
        <mxCell id="fpGE6FCmWR1sTY0XqfGk-69" value="" style="edgeStyle=orthogonalEdgeStyle;rounded=0;orthogonalLoop=1;jettySize=auto;html=1;" edge="1" parent="WIyWlLk6GJQsqaUBKTNV-1" source="fpGE6FCmWR1sTY0XqfGk-15" target="fpGE6FCmWR1sTY0XqfGk-68">
          <mxGeometry relative="1" as="geometry">
            <Array as="points">
              <mxPoint x="285" y="740" />
              <mxPoint x="857" y="740" />
            </Array>
          </mxGeometry>
        </mxCell>
        <mxCell id="fpGE6FCmWR1sTY0XqfGk-71" value="" style="edgeStyle=orthogonalEdgeStyle;rounded=0;orthogonalLoop=1;jettySize=auto;html=1;" edge="1" parent="WIyWlLk6GJQsqaUBKTNV-1" source="fpGE6FCmWR1sTY0XqfGk-15" target="fpGE6FCmWR1sTY0XqfGk-70">
          <mxGeometry relative="1" as="geometry">
            <Array as="points">
              <mxPoint x="285" y="740" />
              <mxPoint x="1017" y="740" />
            </Array>
          </mxGeometry>
        </mxCell>
        <mxCell id="fpGE6FCmWR1sTY0XqfGk-73" value="" style="edgeStyle=orthogonalEdgeStyle;rounded=0;orthogonalLoop=1;jettySize=auto;html=1;" edge="1" parent="WIyWlLk6GJQsqaUBKTNV-1" source="fpGE6FCmWR1sTY0XqfGk-15" target="fpGE6FCmWR1sTY0XqfGk-72">
          <mxGeometry relative="1" as="geometry">
            <Array as="points">
              <mxPoint x="285" y="740" />
              <mxPoint x="1177" y="740" />
            </Array>
          </mxGeometry>
        </mxCell>
        <mxCell id="fpGE6FCmWR1sTY0XqfGk-103" value="" style="edgeStyle=orthogonalEdgeStyle;rounded=0;orthogonalLoop=1;jettySize=auto;html=1;entryX=1;entryY=0.5;entryDx=0;entryDy=0;" edge="1" parent="WIyWlLk6GJQsqaUBKTNV-1" source="fpGE6FCmWR1sTY0XqfGk-15" target="fpGE6FCmWR1sTY0XqfGk-7">
          <mxGeometry relative="1" as="geometry">
            <mxPoint x="431.49" y="670" as="targetPoint" />
            <Array as="points">
              <mxPoint x="470" y="670" />
              <mxPoint x="470" y="580" />
            </Array>
          </mxGeometry>
        </mxCell>
        <mxCell id="fpGE6FCmWR1sTY0XqfGk-15" value="项目概况" style="rounded=1;whiteSpace=wrap;html=1;fontSize=12;glass=0;strokeWidth=1;shadow=0;" vertex="1" parent="WIyWlLk6GJQsqaUBKTNV-1">
          <mxGeometry x="218.51999999999998" y="650" width="132.97" height="40" as="geometry" />
        </mxCell>
        <mxCell id="fpGE6FCmWR1sTY0XqfGk-17" value="点击地图上的项目标记点" style="text;html=1;strokeColor=none;fillColor=none;align=center;verticalAlign=middle;whiteSpace=wrap;rounded=0;" vertex="1" parent="WIyWlLk6GJQsqaUBKTNV-1">
          <mxGeometry x="290" y="610" width="75" height="20" as="geometry" />
        </mxCell>
        <mxCell id="fpGE6FCmWR1sTY0XqfGk-22" value="" style="edgeStyle=orthogonalEdgeStyle;rounded=0;orthogonalLoop=1;jettySize=auto;html=1;exitX=0.5;exitY=1;exitDx=0;exitDy=0;" edge="1" parent="WIyWlLk6GJQsqaUBKTNV-1" source="fpGE6FCmWR1sTY0XqfGk-32" target="fpGE6FCmWR1sTY0XqfGk-21">
          <mxGeometry relative="1" as="geometry">
            <Array as="points">
              <mxPoint x="47" y="880" />
              <mxPoint x="-24" y="880" />
            </Array>
          </mxGeometry>
        </mxCell>
        <mxCell id="fpGE6FCmWR1sTY0XqfGk-18" value="井下胶带运输监控" style="rounded=1;whiteSpace=wrap;html=1;fontSize=12;glass=0;strokeWidth=1;shadow=0;" vertex="1" parent="WIyWlLk6GJQsqaUBKTNV-1">
          <mxGeometry x="148.51999999999998" y="790" width="132.97" height="40" as="geometry" />
        </mxCell>
        <mxCell id="fpGE6FCmWR1sTY0XqfGk-20" value="点击设备监控子菜单" style="text;html=1;strokeColor=none;fillColor=none;align=center;verticalAlign=middle;whiteSpace=wrap;rounded=0;" vertex="1" parent="WIyWlLk6GJQsqaUBKTNV-1">
          <mxGeometry x="130" y="750" width="75" height="20" as="geometry" />
        </mxCell>
        <mxCell id="fpGE6FCmWR1sTY0XqfGk-109" value="" style="edgeStyle=orthogonalEdgeStyle;rounded=0;orthogonalLoop=1;jettySize=auto;html=1;" edge="1" parent="WIyWlLk6GJQsqaUBKTNV-1" source="fpGE6FCmWR1sTY0XqfGk-21" target="fpGE6FCmWR1sTY0XqfGk-108">
          <mxGeometry relative="1" as="geometry" />
        </mxCell>
        <mxCell id="fpGE6FCmWR1sTY0XqfGk-112" value="" style="edgeStyle=orthogonalEdgeStyle;rounded=0;orthogonalLoop=1;jettySize=auto;html=1;" edge="1" parent="WIyWlLk6GJQsqaUBKTNV-1" source="fpGE6FCmWR1sTY0XqfGk-21" target="fpGE6FCmWR1sTY0XqfGk-111">
          <mxGeometry relative="1" as="geometry" />
        </mxCell>
        <mxCell id="fpGE6FCmWR1sTY0XqfGk-21" value="设备监测" style="rounded=1;whiteSpace=wrap;html=1;fontSize=12;glass=0;strokeWidth=1;shadow=0;" vertex="1" parent="WIyWlLk6GJQsqaUBKTNV-1">
          <mxGeometry x="-90.50000000000003" y="920" width="132.97" height="40" as="geometry" />
        </mxCell>
        <mxCell id="fpGE6FCmWR1sTY0XqfGk-23" value="点击设备监控中的设备列表，进入设备详情页" style="text;html=1;strokeColor=none;fillColor=none;align=center;verticalAlign=middle;whiteSpace=wrap;rounded=0;" vertex="1" parent="WIyWlLk6GJQsqaUBKTNV-1">
          <mxGeometry x="-90.5" y="850" width="135" height="20" as="geometry" />
        </mxCell>
        <mxCell id="fpGE6FCmWR1sTY0XqfGk-30" value="提升机监控监控" style="rounded=1;whiteSpace=wrap;html=1;fontSize=12;glass=0;strokeWidth=1;shadow=0;" vertex="1" parent="WIyWlLk6GJQsqaUBKTNV-1">
          <mxGeometry x="308.52" y="790" width="132.97" height="40" as="geometry" />
        </mxCell>
        <mxCell id="fpGE6FCmWR1sTY0XqfGk-75" value="" style="edgeStyle=orthogonalEdgeStyle;rounded=0;orthogonalLoop=1;jettySize=auto;html=1;" edge="1" parent="WIyWlLk6GJQsqaUBKTNV-1" source="fpGE6FCmWR1sTY0XqfGk-32" target="fpGE6FCmWR1sTY0XqfGk-74">
          <mxGeometry relative="1" as="geometry">
            <Array as="points">
              <mxPoint x="47" y="880" />
              <mxPoint x="116" y="880" />
            </Array>
          </mxGeometry>
        </mxCell>
        <mxCell id="fpGE6FCmWR1sTY0XqfGk-77" value="" style="edgeStyle=orthogonalEdgeStyle;rounded=0;orthogonalLoop=1;jettySize=auto;html=1;" edge="1" parent="WIyWlLk6GJQsqaUBKTNV-1" source="fpGE6FCmWR1sTY0XqfGk-32" target="fpGE6FCmWR1sTY0XqfGk-76">
          <mxGeometry relative="1" as="geometry">
            <Array as="points">
              <mxPoint x="47" y="880" />
              <mxPoint x="-150" y="880" />
            </Array>
          </mxGeometry>
        </mxCell>
        <mxCell id="fpGE6FCmWR1sTY0XqfGk-79" value="" style="edgeStyle=orthogonalEdgeStyle;rounded=0;orthogonalLoop=1;jettySize=auto;html=1;" edge="1" parent="WIyWlLk6GJQsqaUBKTNV-1" source="fpGE6FCmWR1sTY0XqfGk-32" target="fpGE6FCmWR1sTY0XqfGk-78">
          <mxGeometry relative="1" as="geometry">
            <Array as="points">
              <mxPoint x="47" y="880" />
              <mxPoint x="257" y="880" />
            </Array>
          </mxGeometry>
        </mxCell>
        <mxCell id="fpGE6FCmWR1sTY0XqfGk-32" value="采煤工作面监控" style="rounded=1;whiteSpace=wrap;html=1;fontSize=12;glass=0;strokeWidth=1;shadow=0;" vertex="1" parent="WIyWlLk6GJQsqaUBKTNV-1">
          <mxGeometry x="-20" y="790" width="132.97" height="40" as="geometry" />
        </mxCell>
        <mxCell id="fpGE6FCmWR1sTY0XqfGk-35" value="井下主排水监控" style="rounded=1;whiteSpace=wrap;html=1;fontSize=12;glass=0;strokeWidth=1;shadow=0;" vertex="1" parent="WIyWlLk6GJQsqaUBKTNV-1">
          <mxGeometry x="470" y="790" width="132.97" height="40" as="geometry" />
        </mxCell>
        <mxCell id="fpGE6FCmWR1sTY0XqfGk-37" value="用户管理" style="rounded=1;whiteSpace=wrap;html=1;fontSize=12;glass=0;strokeWidth=1;shadow=0;" vertex="1" parent="WIyWlLk6GJQsqaUBKTNV-1">
          <mxGeometry x="707" y="315" width="120" height="40" as="geometry" />
        </mxCell>
        <mxCell id="fpGE6FCmWR1sTY0XqfGk-90" value="" style="edgeStyle=orthogonalEdgeStyle;rounded=0;orthogonalLoop=1;jettySize=auto;html=1;" edge="1" parent="WIyWlLk6GJQsqaUBKTNV-1" source="fpGE6FCmWR1sTY0XqfGk-42" target="fpGE6FCmWR1sTY0XqfGk-89">
          <mxGeometry relative="1" as="geometry" />
        </mxCell>
        <mxCell id="fpGE6FCmWR1sTY0XqfGk-92" value="" style="edgeStyle=orthogonalEdgeStyle;rounded=0;orthogonalLoop=1;jettySize=auto;html=1;" edge="1" parent="WIyWlLk6GJQsqaUBKTNV-1" source="fpGE6FCmWR1sTY0XqfGk-42" target="fpGE6FCmWR1sTY0XqfGk-91">
          <mxGeometry relative="1" as="geometry">
            <Array as="points">
              <mxPoint x="860" y="140" />
              <mxPoint x="860" y="80" />
            </Array>
          </mxGeometry>
        </mxCell>
        <mxCell id="fpGE6FCmWR1sTY0XqfGk-94" value="" style="edgeStyle=orthogonalEdgeStyle;rounded=0;orthogonalLoop=1;jettySize=auto;html=1;" edge="1" parent="WIyWlLk6GJQsqaUBKTNV-1" source="fpGE6FCmWR1sTY0XqfGk-42" target="fpGE6FCmWR1sTY0XqfGk-93">
          <mxGeometry relative="1" as="geometry">
            <Array as="points">
              <mxPoint x="860" y="140" />
              <mxPoint x="860" y="200" />
            </Array>
          </mxGeometry>
        </mxCell>
        <mxCell id="fpGE6FCmWR1sTY0XqfGk-42" value="权限配置" style="rounded=1;whiteSpace=wrap;html=1;fontSize=12;glass=0;strokeWidth=1;shadow=0;" vertex="1" parent="WIyWlLk6GJQsqaUBKTNV-1">
          <mxGeometry x="707" y="120" width="120" height="40" as="geometry" />
        </mxCell>
        <mxCell id="fpGE6FCmWR1sTY0XqfGk-44" value="菜单管理" style="rounded=1;whiteSpace=wrap;html=1;fontSize=12;glass=0;strokeWidth=1;shadow=0;" vertex="1" parent="WIyWlLk6GJQsqaUBKTNV-1">
          <mxGeometry x="707" y="480" width="120" height="40" as="geometry" />
        </mxCell>
        <mxCell id="fpGE6FCmWR1sTY0XqfGk-98" value="" style="edgeStyle=orthogonalEdgeStyle;rounded=0;orthogonalLoop=1;jettySize=auto;html=1;" edge="1" parent="WIyWlLk6GJQsqaUBKTNV-1" source="fpGE6FCmWR1sTY0XqfGk-46" target="fpGE6FCmWR1sTY0XqfGk-97">
          <mxGeometry relative="1" as="geometry" />
        </mxCell>
        <mxCell id="fpGE6FCmWR1sTY0XqfGk-100" value="" style="edgeStyle=orthogonalEdgeStyle;rounded=0;orthogonalLoop=1;jettySize=auto;html=1;" edge="1" parent="WIyWlLk6GJQsqaUBKTNV-1" source="fpGE6FCmWR1sTY0XqfGk-46" target="fpGE6FCmWR1sTY0XqfGk-99">
          <mxGeometry relative="1" as="geometry">
            <Array as="points">
              <mxPoint x="870" y="610" />
              <mxPoint x="870" y="560" />
            </Array>
          </mxGeometry>
        </mxCell>
        <mxCell id="fpGE6FCmWR1sTY0XqfGk-102" value="" style="edgeStyle=orthogonalEdgeStyle;rounded=0;orthogonalLoop=1;jettySize=auto;html=1;" edge="1" parent="WIyWlLk6GJQsqaUBKTNV-1" source="fpGE6FCmWR1sTY0XqfGk-46" target="fpGE6FCmWR1sTY0XqfGk-101">
          <mxGeometry relative="1" as="geometry">
            <Array as="points">
              <mxPoint x="870" y="610" />
              <mxPoint x="870" y="660" />
            </Array>
          </mxGeometry>
        </mxCell>
        <mxCell id="fpGE6FCmWR1sTY0XqfGk-46" value="角色管理" style="rounded=1;whiteSpace=wrap;html=1;fontSize=12;glass=0;strokeWidth=1;shadow=0;" vertex="1" parent="WIyWlLk6GJQsqaUBKTNV-1">
          <mxGeometry x="707" y="590" width="120" height="40" as="geometry" />
        </mxCell>
        <mxCell id="fpGE6FCmWR1sTY0XqfGk-48" value="直接跳入项目总览路由页" style="text;html=1;strokeColor=none;fillColor=none;align=center;verticalAlign=middle;whiteSpace=wrap;rounded=0;" vertex="1" parent="WIyWlLk6GJQsqaUBKTNV-1">
          <mxGeometry x="290" y="520" width="80" height="20" as="geometry" />
        </mxCell>
        <mxCell id="fpGE6FCmWR1sTY0XqfGk-49" value="" style="edgeStyle=orthogonalEdgeStyle;rounded=0;orthogonalLoop=1;jettySize=auto;html=1;" edge="1" source="fpGE6FCmWR1sTY0XqfGk-53" target="fpGE6FCmWR1sTY0XqfGk-54" parent="WIyWlLk6GJQsqaUBKTNV-1">
          <mxGeometry relative="1" as="geometry">
            <Array as="points">
              <mxPoint x="657" y="370" />
              <mxPoint x="657" y="335" />
            </Array>
          </mxGeometry>
        </mxCell>
        <mxCell id="fpGE6FCmWR1sTY0XqfGk-50" value="" style="edgeStyle=orthogonalEdgeStyle;rounded=0;orthogonalLoop=1;jettySize=auto;html=1;entryX=0;entryY=0.5;entryDx=0;entryDy=0;" edge="1" source="fpGE6FCmWR1sTY0XqfGk-53" parent="WIyWlLk6GJQsqaUBKTNV-1" target="fpGE6FCmWR1sTY0XqfGk-42">
          <mxGeometry relative="1" as="geometry">
            <mxPoint x="702" y="290" as="targetPoint" />
            <Array as="points">
              <mxPoint x="657" y="370" />
              <mxPoint x="657" y="140" />
            </Array>
          </mxGeometry>
        </mxCell>
        <mxCell id="fpGE6FCmWR1sTY0XqfGk-51" value="" style="edgeStyle=orthogonalEdgeStyle;rounded=0;orthogonalLoop=1;jettySize=auto;html=1;entryX=0;entryY=0.5;entryDx=0;entryDy=0;" edge="1" source="fpGE6FCmWR1sTY0XqfGk-53" target="fpGE6FCmWR1sTY0XqfGk-55" parent="WIyWlLk6GJQsqaUBKTNV-1">
          <mxGeometry relative="1" as="geometry">
            <Array as="points">
              <mxPoint x="657" y="370" />
              <mxPoint x="657" y="500" />
            </Array>
          </mxGeometry>
        </mxCell>
        <mxCell id="fpGE6FCmWR1sTY0XqfGk-52" value="" style="edgeStyle=orthogonalEdgeStyle;rounded=0;orthogonalLoop=1;jettySize=auto;html=1;entryX=0;entryY=0.5;entryDx=0;entryDy=0;" edge="1" source="fpGE6FCmWR1sTY0XqfGk-53" parent="WIyWlLk6GJQsqaUBKTNV-1" target="fpGE6FCmWR1sTY0XqfGk-46">
          <mxGeometry relative="1" as="geometry">
            <mxPoint x="702" y="520" as="targetPoint" />
            <Array as="points">
              <mxPoint x="657" y="370" />
              <mxPoint x="657" y="610" />
            </Array>
          </mxGeometry>
        </mxCell>
        <mxCell id="fpGE6FCmWR1sTY0XqfGk-53" value="管理员系统" style="rounded=1;whiteSpace=wrap;html=1;fontSize=12;glass=0;strokeWidth=1;shadow=0;" vertex="1" parent="WIyWlLk6GJQsqaUBKTNV-1">
          <mxGeometry x="507" y="350" width="120" height="40" as="geometry" />
        </mxCell>
        <mxCell id="fpGE6FCmWR1sTY0XqfGk-82" value="" style="edgeStyle=orthogonalEdgeStyle;rounded=0;orthogonalLoop=1;jettySize=auto;html=1;" edge="1" parent="WIyWlLk6GJQsqaUBKTNV-1" source="fpGE6FCmWR1sTY0XqfGk-54" target="fpGE6FCmWR1sTY0XqfGk-81">
          <mxGeometry relative="1" as="geometry">
            <Array as="points">
              <mxPoint x="900" y="335" />
              <mxPoint x="900" y="335" />
            </Array>
          </mxGeometry>
        </mxCell>
        <mxCell id="fpGE6FCmWR1sTY0XqfGk-84" value="" style="edgeStyle=orthogonalEdgeStyle;rounded=0;orthogonalLoop=1;jettySize=auto;html=1;entryX=0;entryY=0.5;entryDx=0;entryDy=0;" edge="1" parent="WIyWlLk6GJQsqaUBKTNV-1" source="fpGE6FCmWR1sTY0XqfGk-54" target="fpGE6FCmWR1sTY0XqfGk-83">
          <mxGeometry relative="1" as="geometry">
            <mxPoint x="970" y="375" as="targetPoint" />
            <Array as="points">
              <mxPoint x="870" y="335" />
              <mxPoint x="870" y="395" />
            </Array>
          </mxGeometry>
        </mxCell>
        <mxCell id="fpGE6FCmWR1sTY0XqfGk-88" value="" style="edgeStyle=orthogonalEdgeStyle;rounded=0;orthogonalLoop=1;jettySize=auto;html=1;entryX=0;entryY=0.5;entryDx=0;entryDy=0;" edge="1" parent="WIyWlLk6GJQsqaUBKTNV-1" source="fpGE6FCmWR1sTY0XqfGk-54" target="fpGE6FCmWR1sTY0XqfGk-87">
          <mxGeometry relative="1" as="geometry">
            <Array as="points">
              <mxPoint x="870" y="335" />
              <mxPoint x="870" y="275" />
            </Array>
          </mxGeometry>
        </mxCell>
        <mxCell id="fpGE6FCmWR1sTY0XqfGk-54" value="用户管理" style="rounded=1;whiteSpace=wrap;html=1;fontSize=12;glass=0;strokeWidth=1;shadow=0;" vertex="1" parent="WIyWlLk6GJQsqaUBKTNV-1">
          <mxGeometry x="707" y="315" width="120" height="40" as="geometry" />
        </mxCell>
        <mxCell id="fpGE6FCmWR1sTY0XqfGk-96" value="" style="edgeStyle=orthogonalEdgeStyle;rounded=0;orthogonalLoop=1;jettySize=auto;html=1;" edge="1" parent="WIyWlLk6GJQsqaUBKTNV-1" source="fpGE6FCmWR1sTY0XqfGk-55" target="fpGE6FCmWR1sTY0XqfGk-95">
          <mxGeometry relative="1" as="geometry" />
        </mxCell>
        <mxCell id="fpGE6FCmWR1sTY0XqfGk-55" value="菜单管理" style="rounded=1;whiteSpace=wrap;html=1;fontSize=12;glass=0;strokeWidth=1;shadow=0;" vertex="1" parent="WIyWlLk6GJQsqaUBKTNV-1">
          <mxGeometry x="707" y="480" width="120" height="40" as="geometry" />
        </mxCell>
        <mxCell id="fpGE6FCmWR1sTY0XqfGk-57" value="点击侧导航" style="text;html=1;strokeColor=none;fillColor=none;align=center;verticalAlign=middle;whiteSpace=wrap;rounded=0;" vertex="1" parent="WIyWlLk6GJQsqaUBKTNV-1">
          <mxGeometry x="205" y="710" width="75" height="20" as="geometry" />
        </mxCell>
        <mxCell id="fpGE6FCmWR1sTY0XqfGk-62" value="主通风机监控" style="rounded=1;whiteSpace=wrap;html=1;fontSize=12;glass=0;strokeWidth=1;shadow=0;" vertex="1" parent="WIyWlLk6GJQsqaUBKTNV-1">
          <mxGeometry x="630" y="790" width="132.97" height="40" as="geometry" />
        </mxCell>
        <mxCell id="fpGE6FCmWR1sTY0XqfGk-64" value="空气压缩机监控" style="rounded=1;whiteSpace=wrap;html=1;fontSize=12;glass=0;strokeWidth=1;shadow=0;" vertex="1" parent="WIyWlLk6GJQsqaUBKTNV-1">
          <mxGeometry x="-190" y="790" width="132.97" height="40" as="geometry" />
        </mxCell>
        <mxCell id="fpGE6FCmWR1sTY0XqfGk-66" value="矿井供电监控" style="rounded=1;whiteSpace=wrap;html=1;fontSize=12;glass=0;strokeWidth=1;shadow=0;" vertex="1" parent="WIyWlLk6GJQsqaUBKTNV-1">
          <mxGeometry x="-360" y="790" width="132.97" height="40" as="geometry" />
        </mxCell>
        <mxCell id="fpGE6FCmWR1sTY0XqfGk-68" value="洗煤厂综合自动化监控" style="rounded=1;whiteSpace=wrap;html=1;fontSize=12;glass=0;strokeWidth=1;shadow=0;" vertex="1" parent="WIyWlLk6GJQsqaUBKTNV-1">
          <mxGeometry x="790" y="790" width="132.97" height="40" as="geometry" />
        </mxCell>
        <mxCell id="fpGE6FCmWR1sTY0XqfGk-70" value="矿井火灾束管监控" style="rounded=1;whiteSpace=wrap;html=1;fontSize=12;glass=0;strokeWidth=1;shadow=0;" vertex="1" parent="WIyWlLk6GJQsqaUBKTNV-1">
          <mxGeometry x="950" y="790" width="132.97" height="40" as="geometry" />
        </mxCell>
        <mxCell id="fpGE6FCmWR1sTY0XqfGk-72" value="产量监控" style="rounded=1;whiteSpace=wrap;html=1;fontSize=12;glass=0;strokeWidth=1;shadow=0;" vertex="1" parent="WIyWlLk6GJQsqaUBKTNV-1">
          <mxGeometry x="1110" y="790" width="132.97" height="40" as="geometry" />
        </mxCell>
        <mxCell id="fpGE6FCmWR1sTY0XqfGk-122" value="" style="edgeStyle=orthogonalEdgeStyle;rounded=0;orthogonalLoop=1;jettySize=auto;html=1;" edge="1" parent="WIyWlLk6GJQsqaUBKTNV-1" source="fpGE6FCmWR1sTY0XqfGk-74" target="fpGE6FCmWR1sTY0XqfGk-121">
          <mxGeometry relative="1" as="geometry" />
        </mxCell>
        <mxCell id="fpGE6FCmWR1sTY0XqfGk-74" value="人员配置" style="rounded=1;whiteSpace=wrap;html=1;fontSize=12;glass=0;strokeWidth=1;shadow=0;" vertex="1" parent="WIyWlLk6GJQsqaUBKTNV-1">
          <mxGeometry x="49.5" y="920" width="132.97" height="40" as="geometry" />
        </mxCell>
        <mxCell id="fpGE6FCmWR1sTY0XqfGk-114" value="" style="edgeStyle=orthogonalEdgeStyle;rounded=0;orthogonalLoop=1;jettySize=auto;html=1;" edge="1" parent="WIyWlLk6GJQsqaUBKTNV-1" source="fpGE6FCmWR1sTY0XqfGk-76" target="fpGE6FCmWR1sTY0XqfGk-113">
          <mxGeometry relative="1" as="geometry" />
        </mxCell>
        <mxCell id="fpGE6FCmWR1sTY0XqfGk-76" value="环境监测" style="rounded=1;whiteSpace=wrap;html=1;fontSize=12;glass=0;strokeWidth=1;shadow=0;" vertex="1" parent="WIyWlLk6GJQsqaUBKTNV-1">
          <mxGeometry x="-227.03" y="920" width="132.97" height="40" as="geometry" />
        </mxCell>
        <mxCell id="fpGE6FCmWR1sTY0XqfGk-78" value="工况监测" style="rounded=1;whiteSpace=wrap;html=1;fontSize=12;glass=0;strokeWidth=1;shadow=0;" vertex="1" parent="WIyWlLk6GJQsqaUBKTNV-1">
          <mxGeometry x="190.51" y="920" width="132.97" height="40" as="geometry" />
        </mxCell>
        <mxCell id="fpGE6FCmWR1sTY0XqfGk-80" value="No" style="text;html=1;strokeColor=none;fillColor=none;align=center;verticalAlign=middle;whiteSpace=wrap;rounded=0;" vertex="1" parent="WIyWlLk6GJQsqaUBKTNV-1">
          <mxGeometry x="365" y="230" width="40" height="20" as="geometry" />
        </mxCell>
        <mxCell id="fpGE6FCmWR1sTY0XqfGk-81" value="新增用户" style="rounded=1;whiteSpace=wrap;html=1;fontSize=12;glass=0;strokeWidth=1;shadow=0;" vertex="1" parent="WIyWlLk6GJQsqaUBKTNV-1">
          <mxGeometry x="910" y="315" width="120" height="40" as="geometry" />
        </mxCell>
        <mxCell id="fpGE6FCmWR1sTY0XqfGk-83" value="删除用户" style="rounded=1;whiteSpace=wrap;html=1;fontSize=12;glass=0;strokeWidth=1;shadow=0;" vertex="1" parent="WIyWlLk6GJQsqaUBKTNV-1">
          <mxGeometry x="910" y="375" width="120" height="40" as="geometry" />
        </mxCell>
        <mxCell id="fpGE6FCmWR1sTY0XqfGk-87" value="用户封禁" style="rounded=1;whiteSpace=wrap;html=1;fontSize=12;glass=0;strokeWidth=1;shadow=0;" vertex="1" parent="WIyWlLk6GJQsqaUBKTNV-1">
          <mxGeometry x="910" y="255" width="120" height="40" as="geometry" />
        </mxCell>
        <mxCell id="fpGE6FCmWR1sTY0XqfGk-89" value="为角色添加权限" style="rounded=1;whiteSpace=wrap;html=1;fontSize=12;glass=0;strokeWidth=1;shadow=0;" vertex="1" parent="WIyWlLk6GJQsqaUBKTNV-1">
          <mxGeometry x="910" y="120" width="120" height="40" as="geometry" />
        </mxCell>
        <mxCell id="fpGE6FCmWR1sTY0XqfGk-91" value="修改角色权限" style="rounded=1;whiteSpace=wrap;html=1;fontSize=12;glass=0;strokeWidth=1;shadow=0;" vertex="1" parent="WIyWlLk6GJQsqaUBKTNV-1">
          <mxGeometry x="910" y="60" width="120" height="40" as="geometry" />
        </mxCell>
        <mxCell id="fpGE6FCmWR1sTY0XqfGk-93" value="删除角色权限" style="rounded=1;whiteSpace=wrap;html=1;fontSize=12;glass=0;strokeWidth=1;shadow=0;" vertex="1" parent="WIyWlLk6GJQsqaUBKTNV-1">
          <mxGeometry x="910" y="180" width="120" height="40" as="geometry" />
        </mxCell>
        <mxCell id="fpGE6FCmWR1sTY0XqfGk-95" value="动态配置菜单路由" style="rounded=1;whiteSpace=wrap;html=1;fontSize=12;glass=0;strokeWidth=1;shadow=0;" vertex="1" parent="WIyWlLk6GJQsqaUBKTNV-1">
          <mxGeometry x="907" y="480" width="120" height="40" as="geometry" />
        </mxCell>
        <mxCell id="fpGE6FCmWR1sTY0XqfGk-97" value="新增角色" style="rounded=1;whiteSpace=wrap;html=1;fontSize=12;glass=0;strokeWidth=1;shadow=0;" vertex="1" parent="WIyWlLk6GJQsqaUBKTNV-1">
          <mxGeometry x="907" y="590" width="120" height="40" as="geometry" />
        </mxCell>
        <mxCell id="fpGE6FCmWR1sTY0XqfGk-99" value="为用户配置角色" style="rounded=1;whiteSpace=wrap;html=1;fontSize=12;glass=0;strokeWidth=1;shadow=0;" vertex="1" parent="WIyWlLk6GJQsqaUBKTNV-1">
          <mxGeometry x="907" y="540" width="120" height="40" as="geometry" />
        </mxCell>
        <mxCell id="fpGE6FCmWR1sTY0XqfGk-101" value="删除角色" style="rounded=1;whiteSpace=wrap;html=1;fontSize=12;glass=0;strokeWidth=1;shadow=0;" vertex="1" parent="WIyWlLk6GJQsqaUBKTNV-1">
          <mxGeometry x="907" y="640" width="120" height="40" as="geometry" />
        </mxCell>
        <mxCell id="fpGE6FCmWR1sTY0XqfGk-104" value="点击项目总览路由跳转总览页" style="text;html=1;strokeColor=none;fillColor=none;align=center;verticalAlign=middle;whiteSpace=wrap;rounded=0;" vertex="1" parent="WIyWlLk6GJQsqaUBKTNV-1">
          <mxGeometry x="470" y="620" width="90" height="20" as="geometry" />
        </mxCell>
        <mxCell id="fpGE6FCmWR1sTY0XqfGk-105" value="返回登录页" style="text;html=1;strokeColor=none;fillColor=none;align=center;verticalAlign=middle;whiteSpace=wrap;rounded=0;" vertex="1" parent="WIyWlLk6GJQsqaUBKTNV-1">
          <mxGeometry x="380" y="180" width="70" height="20" as="geometry" />
        </mxCell>
        <mxCell id="fpGE6FCmWR1sTY0XqfGk-108" value="设备详情&lt;br&gt;（各种指标监测）" style="rounded=1;whiteSpace=wrap;html=1;fontSize=12;glass=0;strokeWidth=1;shadow=0;" vertex="1" parent="WIyWlLk6GJQsqaUBKTNV-1">
          <mxGeometry x="-160.00000000000003" y="1040" width="132.97" height="40" as="geometry" />
        </mxCell>
        <mxCell id="fpGE6FCmWR1sTY0XqfGk-110" value="点击设备列表中的一个" style="text;html=1;strokeColor=none;fillColor=none;align=center;verticalAlign=middle;whiteSpace=wrap;rounded=0;" vertex="1" parent="WIyWlLk6GJQsqaUBKTNV-1">
          <mxGeometry x="-20.5" y="970" width="70" height="20" as="geometry" />
        </mxCell>
        <mxCell id="fpGE6FCmWR1sTY0XqfGk-111" value="设备的仿真建模" style="rounded=1;whiteSpace=wrap;html=1;fontSize=12;glass=0;strokeWidth=1;shadow=0;" vertex="1" parent="WIyWlLk6GJQsqaUBKTNV-1">
          <mxGeometry x="-20.00000000000003" y="1040" width="132.97" height="40" as="geometry" />
        </mxCell>
        <mxCell id="fpGE6FCmWR1sTY0XqfGk-113" value="工作面环境（瓦斯、一氧化碳等化学物质监测）" style="rounded=1;whiteSpace=wrap;html=1;fontSize=12;glass=0;strokeWidth=1;shadow=0;" vertex="1" parent="WIyWlLk6GJQsqaUBKTNV-1">
          <mxGeometry x="-322.97" y="1040" width="142.97" height="40" as="geometry" />
        </mxCell>
        <mxCell id="fpGE6FCmWR1sTY0XqfGk-121" value="工作面作业人员编排" style="rounded=1;whiteSpace=wrap;html=1;fontSize=12;glass=0;strokeWidth=1;shadow=0;" vertex="1" parent="WIyWlLk6GJQsqaUBKTNV-1">
          <mxGeometry x="130" y="1040" width="132.97" height="40" as="geometry" />
        </mxCell>
      </root>
    </mxGraphModel>
  </diagram>
</mxfile>
